<svg width="349" height="90" viewBox="0 0 349 90" fill="none" xmlns="http://www.w3.org/2000/svg">
<path d="M325.794 52.7842C328.307 47.9143 331.842 42.4945 334.748 38.1743C334.984 37.7816 335.534 37.7031 335.848 37.9387C336.319 38.2529 337.026 39.1955 336.633 39.6668C336.162 40.3737 335.062 41.9446 334.591 42.7301C335.377 42.0232 337.026 40.5308 337.576 40.2951C338.283 39.9809 338.754 41.0806 338.754 41.6304C338.911 43.9869 339.775 44.6153 341.111 44.6153C343.388 44.6153 346.059 43.5941 348.023 42.7301C348.965 42.3374 349.201 44.3011 348.101 44.8509C346.53 45.6364 343.546 46.9717 341.189 46.9717C339.147 46.9717 337.733 45.008 337.105 42.9658C335.062 44.6153 330.35 49.878 327.757 54.1195C327.129 55.2192 325.401 53.5697 325.794 52.7842Z" fill="white"/>
<path d="M330.102 47.6786C327.981 49.5638 319.027 54.9836 313.136 54.9836C310.544 54.9836 308.266 53.0984 308.266 50.5849C308.266 45.008 315.413 39.1955 320.126 39.6668C321.462 39.8239 323.268 41.0806 323.268 42.4945C323.268 45.4007 315.413 48.2285 312.429 47.443L311.8 47.2859C310.858 48.6212 308.266 52.6271 312.507 52.6271C318.163 52.6271 327.51 47.2073 329.866 45.4007C330.887 44.6153 330.887 46.9717 330.102 47.6786ZM321.069 42.0232C318.398 41.2377 314.785 43.7512 313.057 45.4793C316.749 45.1651 319.969 43.4371 321.069 42.0232Z" fill="white"/>
<path d="M289.753 49.7993L285.747 57.3399C285.197 58.2039 283.941 56.3188 284.255 55.4547C285.197 52.7056 295.958 33.6185 303.813 22.4647C305.306 20.3439 310.176 13.196 312.375 13.196C313.239 13.196 314.103 13.903 314.103 15.631C314.103 19.7941 304.442 32.3617 294.702 42.8871C297.844 41.3947 301.378 40.2165 302.949 39.9808C303.892 39.5881 305.384 41.7089 304.442 41.9445C299.257 43.2013 290.931 46.1861 290.931 48.3854C290.931 49.6422 293.523 50.9775 296.665 50.9775C301.928 50.9775 307.034 47.9927 311.04 45.0864C311.825 44.6152 312.218 46.7359 311.589 47.2858C307.662 50.192 302.635 53.1769 296.822 53.1769C293.366 53.1769 290.931 51.6845 289.753 49.7993ZM311.982 16.1809C311.354 15.1597 301.457 29.6911 295.409 39.6666C303.499 30.1624 312.768 17.5162 311.982 16.1809Z" fill="white"/>
<path d="M269.798 52.7842C272.311 47.9143 275.846 42.4945 278.752 38.1743C278.988 37.7816 279.538 37.7031 279.852 37.9387C280.323 38.2529 281.03 39.1955 280.637 39.6668C280.166 40.3737 279.066 41.9446 278.595 42.7301C279.38 42.0232 281.03 40.5308 281.58 40.2951C282.287 39.9809 282.758 41.0806 282.758 41.6304C282.915 43.9869 283.779 44.6153 285.114 44.6153C287.392 44.6153 290.063 43.5941 292.027 42.7301C292.969 42.3374 293.205 44.3011 292.105 44.8509C290.534 45.6364 287.549 46.9717 285.193 46.9717C283.151 46.9717 281.737 45.008 281.109 42.9658C279.066 44.6153 274.353 49.878 271.761 54.1195C271.133 55.2192 269.405 53.5697 269.798 52.7842Z" fill="white"/>
<path d="M258.236 49.799C256.351 51.37 253.052 54.1977 250.852 54.1977C249.596 54.1977 247.789 53.0981 247.789 51.8413C247.553 49.0136 251.638 44.772 253.445 43.1225C255.173 41.5515 257.293 40.0591 259.571 40.0591C260.749 40.0591 262.085 40.8446 262.713 41.7086L264.127 40.1377C264.912 39.2736 266.641 41.473 265.698 42.337C263.656 45.0076 260.514 49.0921 260.514 51.0558C260.514 51.6842 260.828 51.9198 261.378 51.9198C264.206 51.9198 271.746 46.8142 274.574 44.8505C275.438 44.2222 276.066 45.8717 275.124 46.7357C272.296 49.4849 265.227 54.1192 262.242 54.1192C259.571 54.1192 258.236 52.3126 258.236 49.799ZM261.613 43.0439C261.221 42.5726 260.749 42.0228 259.964 42.0228C257.058 42.0228 250.067 49.1707 249.988 52.3126C251.559 52.3126 255.879 48.6994 261.613 43.0439Z" fill="white"/>
<path d="M202.278 61.5026C202.356 60.7956 202.435 60.0102 202.828 59.3818C202.985 58.9105 203.378 58.7534 203.849 58.9105C204.163 59.1461 205.027 60.56 204.87 60.9527C204.477 62.131 204.399 63.2306 204.713 64.1732C205.42 65.1158 206.598 65.5871 208.09 66.2154C209.347 66.6082 210.84 66.9224 212.646 67.0795C223.8 68.1791 242.18 61.2669 242.18 54.7475C242.18 50.2702 231.341 47.2069 223.329 43.2795C218.302 40.766 212.568 36.9957 212.96 31.4188C213.982 17.3587 245.165 3.69141 266.766 3.69141C269.986 3.69141 276.348 4.79107 279.49 9.1112C280.983 11.1534 281.218 13.4313 281.14 16.6518C280.826 18.2227 278.783 16.4161 278.783 15.5521C278.862 13.7455 279.019 11.5462 278.234 10.0538C276.427 6.51913 269.986 6.12639 266.766 6.12639C244.615 6.12639 215.945 20.6577 215.003 32.4399C214.846 35.1891 218.694 38.0168 223.172 40.5303C231.262 45.0861 243.83 47.4425 243.83 55.3758C243.83 64.3303 224.743 70.6141 212.96 69.4359C207.384 68.8861 201.807 66.294 202.278 61.5026Z" fill="white"/>
<path d="M170.968 34.0899C169.79 34.247 168.926 32.3618 169.947 32.2047C171.832 31.8905 175.995 31.4192 180.865 31.0265L182.75 27.9631C186.599 21.915 190.134 16.2595 192.726 14.0602C193.276 13.5889 193.826 13.2747 194.297 13.1962C195.004 13.0391 196.104 13.3533 195.946 14.8457C195.475 18.6945 191.862 24.6641 187.62 30.4767C194.847 30.0054 202.152 29.6912 205.765 29.9268C207.257 30.0054 209.064 31.0265 207.964 32.676C207.336 33.3044 206.786 32.676 206.786 32.0476C202.937 31.812 194.375 32.1262 186.049 32.676C181.179 39.1955 175.995 45.0866 174.581 47.0503C173.717 49.2496 172.775 51.5275 172.775 53.0984C172.775 53.8054 172.932 54.1195 173.482 54.1195C177.645 54.1195 187.856 45.0866 190.448 43.0443C191.312 42.3374 192.019 43.9869 191.391 44.6938C189.977 46.3433 178.587 56.6331 174.267 56.6331C172.304 56.6331 170.89 54.9836 170.89 53.177C170.89 50.5064 172.068 45.9506 179.608 33.2258C176.388 33.4615 173.325 33.7757 170.968 34.0899ZM193.747 16.1024C191.391 18.2232 188.327 23.2503 184.321 29.6126L183.614 30.7909C184.086 30.7123 184.557 30.7123 185.028 30.7123C188.72 25.6067 192.255 20.0298 193.747 16.1024ZM183.457 32.9117C183.065 32.9117 182.593 32.9117 182.201 32.9902L178.587 38.8027C180.001 37.2318 181.729 35.1895 183.457 32.9117Z" fill="white"/>
<path d="M157.443 49.799C155.558 51.37 152.259 54.1977 150.059 54.1977C148.803 54.1977 146.996 53.0981 146.996 51.8413C146.76 49.0136 150.845 44.772 152.652 43.1225C154.38 41.5515 156.5 40.0591 158.778 40.0591C159.956 40.0591 161.292 40.8446 161.92 41.7086L163.334 40.1377C164.12 39.2736 165.848 41.473 164.905 42.337C162.863 45.0076 159.721 49.0921 159.721 51.0558C159.721 51.6842 160.035 51.9198 160.585 51.9198C163.413 51.9198 170.953 46.8142 173.781 44.8505C174.645 44.2222 175.273 45.8717 174.331 46.7357C171.503 49.4849 164.434 54.1192 161.449 54.1192C158.778 54.1192 157.443 52.3126 157.443 49.799ZM160.821 43.0439C160.428 42.5726 159.956 42.0228 159.171 42.0228C156.265 42.0228 149.274 49.1707 149.195 52.3126C150.766 52.3126 155.087 48.6994 160.821 43.0439Z" fill="white"/>
<path d="M152.938 45.4003C150.896 46.2643 143.356 48.228 139.036 48.935C143.12 62.3666 123.405 89.6227 117.671 89.6227C115.628 89.6227 114.686 87.5019 114.764 85.7739C114.921 83.1818 116.257 79.5686 117.749 76.0339C122.226 65.5871 127.332 56.7112 132.673 47.9138L133.066 47.2069L132.987 47.0498C132.595 46.5 132.516 46.0287 132.673 45.4003C132.752 45.2432 132.83 45.0861 132.987 44.929C133.38 44.4577 133.93 44.2221 134.637 44.2221L134.794 44.3006L136.208 42.1798C138.014 39.3521 139.664 36.6815 141.235 34.4036C143.277 31.1832 150.975 19.4795 152.546 17.5944C153.881 15.7092 154.981 14.2954 155.688 13.9812C156.395 13.8241 157.73 15.3165 157.651 16.2591C157.259 23.7211 143.12 41.7871 137.7 45.8716L137.543 46.1072L137.936 46.5H138.172C142.963 45.793 149.247 44.3006 152.624 43.0439C154.038 42.5726 153.96 45.0076 152.938 45.4003ZM136.836 49.092C136.365 49.1706 136.286 49.0135 135.187 48.8564L134.715 49.4848C127.018 62.6808 122.619 70.9283 119.948 77.3692C118.535 80.9039 117.121 84.0458 117.121 87.4234C121.755 86.5593 136.758 64.6445 137.465 53.098C137.465 51.0557 137.229 50.1917 136.836 49.092ZM154.981 18.3799C153.724 20.1079 144.77 33.7752 139.742 41.3158C142.57 39.0379 153.96 22.7 154.981 18.3799Z" fill="white"/>
<path d="M119.933 49.799C118.048 51.37 114.749 54.1977 112.55 54.1977C111.293 54.1977 109.486 53.0981 109.486 51.8413C109.251 49.0136 113.335 44.772 115.142 43.1225C116.87 41.5515 118.991 40.0591 121.269 40.0591C122.447 40.0591 123.782 40.8446 124.41 41.7086L125.824 40.1377C126.61 39.2736 128.338 41.473 127.395 42.337C125.353 45.0076 122.211 49.0921 122.211 51.0558C122.211 51.6842 122.525 51.9198 123.075 51.9198C125.903 51.9198 133.443 46.8142 136.271 44.8505C137.135 44.2222 137.764 45.8717 136.821 46.7357C133.993 49.4849 126.924 54.1192 123.939 54.1192C121.269 54.1192 119.933 52.3126 119.933 49.799ZM123.311 43.0439C122.918 42.5726 122.447 42.0228 121.661 42.0228C118.755 42.0228 111.764 49.1707 111.686 52.3126C113.257 52.3126 117.577 48.6994 123.311 43.0439Z" fill="white"/>
<path d="M93.1414 52.7842C95.6549 47.9143 99.1896 42.4945 102.096 38.1743C102.331 37.7816 102.881 37.7031 103.196 37.9387C103.667 38.2529 104.374 39.1955 103.981 39.6668C103.51 40.3737 102.41 41.9446 101.939 42.7301C102.724 42.0232 104.374 40.5308 104.924 40.2951C105.63 39.9809 106.102 41.0806 106.102 41.6304C106.259 43.9869 107.123 44.6153 108.458 44.6153C110.736 44.6153 113.407 43.5941 115.37 42.7301C116.313 42.3374 116.549 44.3011 115.449 44.8509C113.878 45.6364 110.893 46.9717 108.537 46.9717C106.495 46.9717 105.081 45.008 104.452 42.9658C102.41 44.6153 97.6972 49.878 95.1051 54.1195C94.4767 55.2192 92.7487 53.5697 93.1414 52.7842Z" fill="white"/>
<path d="M12.5768 68.7293C12.5768 68.1795 13.2052 68.1009 13.5979 68.1009C13.8336 68.1009 13.9907 68.1795 14.1478 68.3366C16.2685 68.3366 23.652 61.0316 24.9873 59.6178C28.8362 55.8475 31.9781 52.0772 36.9266 46.8145L37.9477 45.7148C28.8362 45.5577 20.5887 45.165 14.1478 44.458C7.07845 43.5155 1.65866 42.2587 0.794631 39.3524C0.401892 38.8812 0.166248 38.4099 0.0877006 37.86C-0.93342 33.0686 6.84281 23.5643 29.7002 23.5643C38.419 23.5643 45.9596 25.2138 52.322 28.1201L53.7358 28.6699L55.5424 26.8633C60.8837 21.365 66.1464 16.1808 70.9378 11.8607C78.3213 5.02706 85.312 0 89.7107 0C91.6744 0 93.0883 1.09967 93.8737 2.90627C94.5021 3.7703 94.8949 4.79141 95.1305 6.04818C95.8374 9.11154 95.6018 13.4317 94.6592 19.2442C93.6381 25.0567 91.8315 32.2046 89.0038 40.6877L88.3754 42.4158H90.5747C94.9734 42.4158 95.9945 42.4158 99.1364 42.5729C99.6863 42.73 100.55 44.2224 100.472 44.5366C100.393 44.8508 100 45.2435 99.5292 45.165C95.5232 45.0864 93.481 45.0864 87.5899 45.0864H87.5114L86.6473 47.3643C84.2909 54.198 81.3061 61.8171 77.6929 70.3003C77.0645 71.9498 75.6507 69.5148 75.6507 68.8864C76.8289 62.6026 75.6507 54.9049 71.8018 47.9141L71.0949 46.6574L70.2309 45.4792H68.1101C59.8626 45.6363 51.2223 45.7934 42.9748 45.7148H41.6395L38.8117 48.8567C33.7847 54.1194 30.6428 57.8897 26.7154 61.8171C23.7306 64.7234 18.7821 70.2217 15.4831 70.2217C14.3834 70.2217 12.5768 69.6719 12.5768 68.7293ZM83.5054 42.5729H85.7048L86.8044 39.2739C89.6322 30.7907 91.4388 23.8 92.3813 18.066C93.4024 12.332 93.481 8.16897 92.9312 5.4198C92.7741 4.86996 92.617 4.32013 92.3813 3.84884C91.753 3.06336 90.9675 2.67063 90.182 2.67063C86.4902 2.67063 80.3635 7.0693 72.5873 14.0601C67.7959 18.3016 62.6903 23.4858 57.4276 28.9056L56.3279 30.0053L56.9563 30.3194C61.9833 33.3043 66.1464 36.996 69.2883 41.159L70.6236 42.8085L71.8018 42.73C75.8077 42.73 79.7351 42.6514 83.5054 42.5729ZM46.1167 36.8389C48.1589 34.8752 50.0441 32.6759 52.0078 30.6336C45.8811 27.8845 38.4976 26.235 30.0929 26.235C7.62828 26.235 1.65866 35.1109 2.12994 38.4884C2.67978 38.9597 3.62235 39.5095 4.95766 39.9808C7.07845 40.6878 10.1418 41.3161 13.9121 41.7874C20.5101 42.5729 29.1504 42.8871 38.4976 43.0442H40.4613L43.0533 40.2165C44.153 39.1168 45.0956 38.0171 46.1167 36.8389ZM67.5602 42.8085H68.2672C65.2823 39.0382 61.2764 35.6607 56.6421 32.833L54.6784 31.7333L54.2071 32.2831C52.0863 34.4039 49.9655 36.6818 47.9233 38.9597L44.0745 43.0442C51.8507 43.1227 59.8626 42.9656 67.5602 42.8085ZM72.3516 45.4006L73.5299 47.5214C76.279 52.3128 77.85 57.4184 78.2427 62.2884L78.9497 60.5603C81.0705 55.3762 83.0341 50.4277 84.6051 45.9505L84.8407 45.165H83.9767C81.4632 45.165 78.9497 45.2435 76.2005 45.4006H72.3516Z" fill="white"/>
</svg>
