<svg width="214" height="55" viewBox="0 0 214 55" fill="none" xmlns="http://www.w3.org/2000/svg">
<path d="M199.09 32.256C200.626 29.28 202.786 25.968 204.562 23.328C204.706 23.088 205.042 23.04 205.234 23.184C205.522 23.376 205.954 23.952 205.714 24.24C205.426 24.672 204.754 25.632 204.466 26.112C204.946 25.68 205.954 24.768 206.29 24.624C206.722 24.432 207.01 25.104 207.01 25.44C207.106 26.88 207.634 27.264 208.45 27.264C209.842 27.264 211.474 26.64 212.674 26.112C213.25 25.872 213.394 27.072 212.722 27.408C211.762 27.888 209.938 28.704 208.498 28.704C207.25 28.704 206.386 27.504 206.002 26.256C204.754 27.264 201.874 30.48 200.29 33.072C199.906 33.744 198.85 32.736 199.09 32.256Z" fill="#161616"/>
<path d="M201.723 29.136C200.427 30.288 194.955 33.6 191.355 33.6C189.771 33.6 188.379 32.4481 188.379 30.9121C188.379 27.5041 192.747 23.952 195.627 24.24C196.443 24.336 197.547 25.104 197.547 25.9681C197.547 27.7441 192.747 29.4721 190.923 28.9921L190.539 28.8961C189.963 29.7121 188.379 32.1601 190.971 32.1601C194.427 32.1601 200.139 28.8481 201.579 27.7441C202.203 27.2641 202.203 28.704 201.723 29.136ZM196.203 25.6801C194.571 25.2001 192.363 26.7361 191.307 27.7921C193.563 27.6001 195.531 26.5441 196.203 25.6801Z" fill="#161616"/>
<path d="M177.066 30.432L174.618 35.04C174.282 35.568 173.514 34.416 173.706 33.888C174.282 32.208 180.858 20.544 185.658 13.728C186.57 12.432 189.546 8.06396 190.89 8.06396C191.418 8.06396 191.946 8.49596 191.946 9.55196C191.946 12.096 186.042 19.776 180.09 26.208C182.01 25.296 184.17 24.576 185.13 24.432C185.706 24.192 186.618 25.488 186.042 25.632C182.874 26.4 177.786 28.224 177.786 29.568C177.786 30.336 179.37 31.152 181.29 31.152C184.506 31.152 187.626 29.328 190.074 27.552C190.554 27.264 190.794 28.56 190.41 28.896C188.01 30.672 184.938 32.496 181.386 32.496C179.274 32.496 177.786 31.584 177.066 30.432ZM190.65 9.88796C190.266 9.26396 184.218 18.144 180.522 24.24C185.466 18.432 191.13 10.704 190.65 9.88796Z" fill="#161616"/>
<path d="M164.871 32.256C166.407 29.28 168.567 25.968 170.343 23.328C170.487 23.088 170.823 23.04 171.015 23.184C171.303 23.376 171.735 23.952 171.495 24.24C171.207 24.672 170.535 25.632 170.247 26.112C170.727 25.68 171.735 24.768 172.071 24.624C172.503 24.432 172.791 25.104 172.791 25.44C172.887 26.88 173.415 27.264 174.231 27.264C175.623 27.264 177.255 26.64 178.455 26.112C179.031 25.872 179.175 27.072 178.503 27.408C177.543 27.888 175.719 28.704 174.279 28.704C173.031 28.704 172.167 27.504 171.783 26.256C170.535 27.264 167.655 30.48 166.071 33.072C165.687 33.744 164.631 32.736 164.871 32.256Z" fill="#161616"/>
<path d="M157.806 30.4319C156.654 31.3919 154.638 33.1199 153.294 33.1199C152.526 33.1199 151.422 32.4479 151.422 31.6799C151.278 29.9519 153.774 27.3599 154.878 26.3519C155.934 25.3919 157.23 24.4799 158.622 24.4799C159.342 24.4799 160.158 24.9599 160.542 25.4879L161.406 24.5279C161.886 23.9999 162.942 25.3439 162.366 25.8719C161.118 27.5039 159.198 29.9999 159.198 31.1999C159.198 31.5839 159.39 31.7279 159.726 31.7279C161.454 31.7279 166.062 28.6079 167.79 27.4079C168.318 27.0239 168.702 28.0319 168.126 28.5599C166.398 30.2399 162.078 33.0719 160.254 33.0719C158.622 33.0719 157.806 31.9679 157.806 30.4319ZM159.87 26.3039C159.63 26.0159 159.342 25.6799 158.862 25.6799C157.086 25.6799 152.814 30.0479 152.766 31.9679C153.726 31.9679 156.366 29.7599 159.87 26.3039Z" fill="#161616"/>
<path d="M123.611 37.5839C123.659 37.1519 123.707 36.6719 123.947 36.2879C124.043 35.9999 124.283 35.9039 124.571 35.9999C124.763 36.1439 125.291 37.0079 125.195 37.2479C124.955 37.9679 124.907 38.6399 125.099 39.2159C125.531 39.7919 126.251 40.0799 127.163 40.4639C127.931 40.7039 128.843 40.8959 129.947 40.9919C136.763 41.6639 147.995 37.4399 147.995 33.4559C147.995 30.7199 141.371 28.8479 136.475 26.4479C133.403 24.9119 129.899 22.6079 130.139 19.1999C130.763 10.6079 149.819 2.25586 163.019 2.25586C164.987 2.25586 168.875 2.92786 170.795 5.56786C171.707 6.81586 171.851 8.20786 171.803 10.1759C171.611 11.1359 170.363 10.0319 170.363 9.50386C170.411 8.39986 170.507 7.05586 170.027 6.14386C168.923 3.98386 164.987 3.74386 163.019 3.74386C149.483 3.74386 131.963 12.6239 131.387 19.8239C131.291 21.5039 133.643 23.2319 136.379 24.7679C141.323 27.5519 149.003 28.9919 149.003 33.8399C149.003 39.3119 137.339 43.1519 130.139 42.4319C126.731 42.0959 123.323 40.5119 123.611 37.5839Z" fill="#161616"/>
<path d="M104.477 20.832C103.757 20.928 103.229 19.776 103.853 19.68C105.005 19.488 107.549 19.2001 110.525 18.9601L111.677 17.088C114.029 13.392 116.189 9.93605 117.773 8.59205C118.109 8.30405 118.445 8.11205 118.733 8.06405C119.165 7.96805 119.837 8.16005 119.741 9.07205C119.453 11.4241 117.245 15.0721 114.653 18.6241C119.069 18.3361 123.533 18.144 125.741 18.288C126.653 18.336 127.757 18.9601 127.085 19.9681C126.701 20.352 126.365 19.9681 126.365 19.5841C124.013 19.4401 118.781 19.632 113.693 19.9681C110.717 23.952 107.549 27.552 106.685 28.7521C106.157 30.0961 105.581 31.488 105.581 32.448C105.581 32.88 105.677 33.0721 106.013 33.0721C108.557 33.0721 114.797 27.552 116.381 26.304C116.909 25.872 117.341 26.8801 116.957 27.3121C116.093 28.3201 109.133 34.608 106.493 34.608C105.293 34.608 104.429 33.6 104.429 32.496C104.429 30.864 105.149 28.08 109.757 20.304C107.789 20.448 105.917 20.64 104.477 20.832ZM118.397 9.84005C116.957 11.1361 115.085 14.208 112.637 18.096L112.205 18.816C112.493 18.7681 112.781 18.768 113.069 18.768C115.325 15.648 117.485 12.2401 118.397 9.84005ZM112.109 20.1121C111.869 20.1121 111.581 20.1121 111.341 20.1601L109.133 23.712C109.997 22.752 111.053 21.5041 112.109 20.1121Z" fill="#161616"/>
<path d="M96.2122 30.4319C95.0602 31.3919 93.0442 33.1199 91.7002 33.1199C90.9322 33.1199 89.8282 32.4479 89.8282 31.6799C89.6842 29.9519 92.1802 27.3599 93.2842 26.3519C94.3402 25.3919 95.6362 24.4799 97.0282 24.4799C97.7482 24.4799 98.5642 24.9599 98.9482 25.4879L99.8122 24.5279C100.292 23.9999 101.348 25.3439 100.772 25.8719C99.5242 27.5039 97.6042 29.9999 97.6042 31.1999C97.6042 31.5839 97.7962 31.7279 98.1322 31.7279C99.8602 31.7279 104.468 28.6079 106.196 27.4079C106.724 27.0239 107.108 28.0319 106.532 28.5599C104.804 30.2399 100.484 33.0719 98.6602 33.0719C97.0282 33.0719 96.2122 31.9679 96.2122 30.4319ZM98.2762 26.3039C98.0362 26.0159 97.7482 25.6799 97.2682 25.6799C95.4922 25.6799 91.2202 30.0479 91.1722 31.9679C92.1322 31.9679 94.7722 29.7599 98.2762 26.3039Z" fill="#161616"/>
<path d="M93.4597 27.7439C92.2117 28.2719 87.6037 29.4719 84.9637 29.9039C87.4597 38.1119 75.4117 54.7679 71.9077 54.7679C70.6597 54.7679 70.0837 53.4719 70.1317 52.4159C70.2277 50.8319 71.0437 48.6239 71.9557 46.4639C74.6917 40.0799 77.8117 34.6559 81.0757 29.2799L81.3157 28.8479L81.2677 28.7519C81.0277 28.4159 80.9797 28.1279 81.0757 27.7439C81.1237 27.6479 81.1717 27.5519 81.2677 27.4559C81.5077 27.1679 81.8437 27.0239 82.2757 27.0239L82.3717 27.0719L83.2357 25.7759C84.3397 24.0479 85.3477 22.4159 86.3077 21.0239C87.5557 19.0559 92.2597 11.9039 93.2197 10.7519C94.0357 9.59987 94.7077 8.73587 95.1397 8.54387C95.5717 8.44787 96.3877 9.35987 96.3397 9.93587C96.0997 14.4959 87.4597 25.5359 84.1477 28.0319L84.0517 28.1759L84.2917 28.4159H84.4357C87.3637 27.9839 91.2037 27.0719 93.2677 26.3039C94.1317 26.0159 94.0837 27.5039 93.4597 27.7439ZM83.6197 29.9999C83.3317 30.0479 83.2837 29.9519 82.6117 29.8559L82.3237 30.2399C77.6197 38.3039 74.9317 43.3439 73.2997 47.2799C72.4357 49.4399 71.5717 51.3599 71.5717 53.4239C74.4037 52.8959 83.5717 39.5039 84.0037 32.4479C84.0037 31.1999 83.8597 30.6719 83.6197 29.9999ZM94.7077 11.2319C93.9397 12.2879 88.4677 20.6399 85.3957 25.2479C87.1237 23.8559 94.0837 13.8719 94.7077 11.2319Z" fill="#161616"/>
<path d="M73.2904 30.4319C72.1384 31.3919 70.1224 33.1199 68.7784 33.1199C68.0104 33.1199 66.9064 32.4479 66.9064 31.6799C66.7624 29.9519 69.2584 27.3599 70.3624 26.3519C71.4184 25.3919 72.7144 24.4799 74.1064 24.4799C74.8264 24.4799 75.6424 24.9599 76.0264 25.4879L76.8904 24.5279C77.3704 23.9999 78.4264 25.3439 77.8504 25.8719C76.6024 27.5039 74.6824 29.9999 74.6824 31.1999C74.6824 31.5839 74.8744 31.7279 75.2104 31.7279C76.9384 31.7279 81.5464 28.6079 83.2744 27.4079C83.8024 27.0239 84.1864 28.0319 83.6104 28.5599C81.8824 30.2399 77.5624 33.0719 75.7384 33.0719C74.1064 33.0719 73.2904 31.9679 73.2904 30.4319ZM75.3544 26.3039C75.1144 26.0159 74.8264 25.6799 74.3464 25.6799C72.5704 25.6799 68.2984 30.0479 68.2504 31.9679C69.2104 31.9679 71.8504 29.7599 75.3544 26.3039Z" fill="#161616"/>
<path d="M56.9179 32.256C58.4539 29.28 60.6139 25.968 62.3899 23.328C62.5339 23.088 62.8699 23.04 63.0619 23.184C63.3499 23.376 63.7819 23.952 63.5419 24.24C63.2539 24.672 62.5819 25.632 62.2939 26.112C62.7739 25.68 63.7819 24.768 64.1179 24.624C64.5499 24.432 64.8379 25.104 64.8379 25.44C64.9339 26.88 65.4619 27.264 66.2779 27.264C67.6699 27.264 69.3019 26.64 70.5019 26.112C71.0779 25.872 71.2219 27.072 70.5499 27.408C69.5899 27.888 67.7659 28.704 66.3259 28.704C65.0779 28.704 64.2139 27.504 63.8299 26.256C62.5819 27.264 59.7019 30.48 58.1179 33.072C57.7339 33.744 56.6779 32.736 56.9179 32.256Z" fill="#161616"/>
<path d="M7.68559 42C7.68559 41.664 8.06959 41.616 8.30959 41.616C8.45359 41.616 8.54959 41.664 8.64559 41.76C9.94159 41.76 14.4536 37.296 15.2696 36.432C17.6216 34.128 19.5416 31.824 22.5656 28.608L23.1896 27.936C17.6216 27.84 12.5816 27.6 8.64559 27.168C4.32559 26.592 1.01359 25.824 0.485593 24.048C0.245593 23.76 0.101593 23.472 0.0535932 23.136C-0.570407 20.208 4.18159 14.4 18.1496 14.4C23.4776 14.4 28.0856 15.408 31.9736 17.184L32.8376 17.52L33.9416 16.416C37.2056 13.056 40.4216 9.888 43.3496 7.248C47.8616 3.072 52.1336 0 54.8216 0C56.0216 0 56.8856 0.672 57.3656 1.776C57.7496 2.304 57.9896 2.928 58.1336 3.696C58.5656 5.568 58.4216 8.208 57.8456 11.76C57.2216 15.312 56.1176 19.68 54.3896 24.864L54.0056 25.92H55.3496C58.0376 25.92 58.6616 25.92 60.5816 26.016C60.9176 26.112 61.4456 27.024 61.3976 27.216C61.3496 27.408 61.1096 27.648 60.8216 27.6C58.3736 27.552 57.1256 27.552 53.5256 27.552H53.4776L52.9496 28.944C51.5096 33.12 49.6856 37.776 47.4776 42.96C47.0936 43.968 46.2296 42.48 46.2296 42.096C46.9496 38.256 46.2296 33.552 43.8776 29.28L43.4456 28.512L42.9176 27.792H41.6216C36.5816 27.888 31.3016 27.984 26.2616 27.936H25.4456L23.7176 29.856C20.6456 33.072 18.7256 35.376 16.3256 37.776C14.5016 39.552 11.4776 42.912 9.46159 42.912C8.78959 42.912 7.68559 42.576 7.68559 42ZM51.0296 26.016H52.3736L53.0456 24C54.7736 18.816 55.8776 14.544 56.4536 11.04C57.0776 7.536 57.1256 4.992 56.7896 3.312C56.6936 2.976 56.5976 2.64 56.4536 2.352C56.0696 1.872 55.5896 1.632 55.1096 1.632C52.8536 1.632 49.1096 4.32 44.3576 8.592C41.4296 11.184 38.3096 14.352 35.0936 17.664L34.4216 18.336L34.8056 18.528C37.8776 20.352 40.4216 22.608 42.3416 25.152L43.1576 26.16L43.8776 26.112C46.3256 26.112 48.7256 26.064 51.0296 26.016ZM28.1816 22.512C29.4296 21.312 30.5816 19.968 31.7816 18.72C28.0376 17.04 23.5256 16.032 18.3896 16.032C4.66159 16.032 1.01359 21.456 1.30159 23.52C1.63759 23.808 2.21359 24.144 3.02959 24.432C4.32559 24.864 6.19759 25.248 8.50159 25.536C12.5336 26.016 17.8136 26.208 23.5256 26.304H24.7256L26.3096 24.576C26.9816 23.904 27.5576 23.232 28.1816 22.512ZM41.2856 26.16H41.7176C39.8936 23.856 37.4456 21.792 34.6136 20.064L33.4136 19.392L33.1256 19.728C31.8296 21.024 30.5336 22.416 29.2856 23.808L26.9336 26.304C31.6856 26.352 36.5816 26.256 41.2856 26.16ZM44.2136 27.744L44.9336 29.04C46.6136 31.968 47.5736 35.088 47.8136 38.064L48.2456 37.008C49.5416 33.84 50.7416 30.816 51.7016 28.08L51.8456 27.6H51.3176C49.7816 27.6 48.2456 27.648 46.5656 27.744H44.2136Z" fill="#161616"/>
</svg>
