<svg width="728" height="73" viewBox="0 0 728 73" fill="none" xmlns="http://www.w3.org/2000/svg">
<path d="M683.799 70.9998V2.07178H699.639C706.839 2.07178 712.311 2.55178 715.671 3.79978C722.775 6.48778 726.999 12.6318 726.999 20.4078C726.999 23.8638 726.519 25.8798 724.983 28.9518C721.431 36.1518 714.519 38.9358 703.095 38.9358L727.959 70.9998H719.415L694.647 38.9358H690.711V70.9998H683.799ZM704.823 8.79178H690.711V32.2158C694.551 32.2158 698.487 32.3118 702.135 32.3118C708.087 32.3118 712.695 31.7358 715.671 29.3358C718.167 27.3198 719.799 23.9598 719.799 20.4078C719.799 13.6878 715.191 8.79178 704.823 8.79178Z" fill="white"/>
<path d="M638.945 2.07178H640.577L672.737 70.9998H665.345L654.497 48.3438H624.737L613.985 70.9998H606.305L638.945 2.07178ZM651.425 41.6238L639.713 16.6638L627.809 41.6238H651.425Z" fill="white"/>
<path d="M555.729 70.9998V2.07178H562.641V27.8958L590.193 2.07178H599.505L566.385 32.9838L602.096 70.9998H592.977L562.641 38.8398V70.9998H555.729Z" fill="white"/>
<path d="M497.705 70.9998V2.07178H513.545C520.745 2.07178 526.217 2.55178 529.577 3.79978C536.681 6.48778 540.905 12.6318 540.905 20.4078C540.905 23.8638 540.425 25.8798 538.889 28.9518C535.337 36.1518 528.425 38.9358 517.001 38.9358L541.865 70.9998H533.321L508.553 38.9358H504.617V70.9998H497.705ZM518.729 8.79178H504.617V32.2158C508.457 32.2158 512.393 32.3118 516.041 32.3118C521.993 32.3118 526.601 31.7358 529.577 29.3358C532.073 27.3198 533.705 23.9598 533.705 20.4078C533.705 13.6878 529.097 8.79178 518.729 8.79178Z" fill="white"/>
<path d="M452.851 2.07178H454.483L486.643 70.9998H479.251L468.403 48.3438H438.643L427.891 70.9998H420.211L452.851 2.07178ZM465.331 41.6238L453.619 16.6638L441.715 41.6238H465.331Z" fill="white"/>
<path d="M410.51 11.5758L404.942 15.8958C401.198 10.9998 397.934 7.44775 392.27 7.44775C386.318 7.44775 382.958 11.6718 382.958 16.1838C382.958 19.9278 385.166 23.8638 389.102 26.8398C402.062 36.4398 411.566 43.0638 411.566 54.1998C411.566 63.8958 403.406 72.7278 392.174 72.7278C382.67 72.7278 376.43 67.4478 371.342 58.1358L377.198 54.5838C381.326 62.1678 386.318 66.0078 391.598 66.0078C398.798 66.0078 404.366 60.7278 404.366 54.2958C404.366 46.7118 397.262 42.3918 381.614 29.7198C378.35 27.1278 375.758 21.6558 375.758 16.4718C375.758 6.96775 383.15 0.34375 392.462 0.34375C400.91 0.34375 405.998 5.43175 410.51 11.5758Z" fill="white"/>
<path d="M319.681 8.79178H304.129V2.07178H341.953V8.79178H326.593V70.9998H319.681V8.79178Z" fill="white"/>
<path d="M274.257 2.07178H275.889L308.049 70.9998H300.657L289.809 48.3438H260.049L249.297 70.9998H241.617L274.257 2.07178ZM286.737 41.6238L275.025 16.6638L263.121 41.6238H286.737Z" fill="white"/>
<path d="M206.789 70.9998V2.07178H241.349V8.79178H213.701V30.3918H241.349V37.1118H213.701V70.9998H206.789Z" fill="white"/>
<path d="M162.32 2.07178H163.952L196.112 70.9998H188.72L177.872 48.3438H148.112L137.36 70.9998H129.68L162.32 2.07178ZM174.8 41.6238L163.088 16.6638L151.184 41.6238H174.8Z" fill="white"/>
<path d="M77.7988 70.9998V2.07178H93.6388C100.839 2.07178 106.311 2.55178 109.671 3.79978C116.775 6.48778 120.999 12.6318 120.999 20.4078C120.999 23.8638 120.519 25.8798 118.983 28.9518C115.431 36.1518 108.519 38.9358 97.0948 38.9358L121.959 70.9998H113.415L88.6468 38.9358H84.7108V70.9998H77.7988ZM98.8228 8.79178H84.7108V32.2158C88.5508 32.2158 92.4868 32.3118 96.1348 32.3118C102.087 32.3118 106.695 31.7358 109.671 29.3358C112.167 27.3198 113.799 23.9598 113.799 20.4078C113.799 13.6878 109.191 8.79178 98.8228 8.79178Z" fill="white"/>
<path d="M32.9447 2.07178H34.5767L66.7367 70.9998H59.3447L48.4967 48.3438H18.7367L7.98469 70.9998H0.304688L32.9447 2.07178ZM45.4247 41.6238L33.7127 16.6638L21.8087 41.6238H45.4247Z" fill="white"/>
</svg>
